<?xml version="1.0" encoding="iso-8859-1"?>
<!-- Generator: Adobe Illustrator 19.0.0, SVG Export Plug-In . SVG Version: 6.00 Build 0)  -->
<svg version="1.1" id="Capa_1" xmlns="http://www.w3.org/2000/svg" xmlns:xlink="http://www.w3.org/1999/xlink" x="0px" y="0px"
	 viewBox="0 0 517.12 517.12" style="enable-background:new 0 0 517.12 517.12;" xml:space="preserve">
<rect x="5.12" y="386.484" style="fill:#629FD6;" width="296.32" height="16"/>
<g>
	<rect x="325.184" y="432.084" style="fill:#9ABFE2;" width="191.936" height="16"/>
	<rect x="15.624" y="432.084" style="fill:#9ABFE2;" width="191.936" height="16"/>
</g>
<rect x="74.32" y="477.692" style="fill:#CDE0F1;" width="373.592" height="16"/>
<path style="fill:#629FD6;" d="M417.44,156.348h-7.584c-7.544-31.728-36.136-55.504-70.336-55.504
	c-8.312,0-16.728,1.832-23.696,4.152c-16.728-47.472-62.032-81.568-115.448-81.568c-67.632,0-122.456,54.544-122.456,121.84
	c0,4.24,0.232,8.416,0.64,12.552C34.112,165.468,0,204.164,0,250.484c0,51.776,42.576,94.16,94.608,94.16H417.4
	c52.024,0,94.6-42.36,94.6-94.16C512.04,198.732,469.472,156.348,417.44,156.348z"/>
<g>
</g>
<g>
</g>
<g>
</g>
<g>
</g>
<g>
</g>
<g>
</g>
<g>
</g>
<g>
</g>
<g>
</g>
<g>
</g>
<g>
</g>
<g>
</g>
<g>
</g>
<g>
</g>
<g>
</g>
</svg>
